<?xml version="1.0" encoding="utf-8"?>
<!-- Svg Vector Icons : http://www.onlinewebfonts.com/icon -->
<!DOCTYPE svg PUBLIC "-//W3C//DTD SVG 1.1//EN" "http://www.w3.org/Graphics/SVG/1.1/DTD/svg11.dtd">
<svg version="1.1" xmlns="http://www.w3.org/2000/svg" xmlns:xlink="http://www.w3.org/1999/xlink" x="0px" y="0px"
    viewBox="0 0 1000 1000" enable-background="new 0 0 1000 1000" xml:space="preserve">
    <metadata> Svg Vector Icons : http://www.onlinewebfonts.com/icon </metadata>
    <g>
        <g transform="translate(0.000000,511.000000) scale(0.100000,-0.100000)">
            <path
                d="M4641.4,4999.6C2568.9,4853.9,780.6,3369.3,256.9,1356.2c-205-790.4-210-1669.8-9.9-2452.8c128.4-516.3,373-1062.2,669.4-1504.3c1578.4-2361.4,4787.1-2902.4,7054.6-1188.1c259.4,195.1,731.2,666.9,926.3,926.3c1464.8,1936.6,1309.2,4624.1-365.6,6365.5C7516.6,4559.9,6106.1,5100.9,4641.4,4999.6z M5150.2,2373.9c46.9-32.1,91.4-88.9,103.7-130.9c22.2-71.6,32.1-79,163-91.4c424.9-39.5,792.9-335.9,970.8-778.1c54.3-135.9,56.8-175.4,69.2-1141.2c9.9-550.8,17.3-1002.9,19.7-1005.4c130.9-150.7,165.5-180.3,219.9-180.3c76.6,0,155.6-39.5,210-108.7c32.1-37.1,44.5-98.8,44.5-229.7v-180.3h-1939h-1939v175.4c0,165.5,4.9,180.3,84,259.4c56.8,56.8,106.2,84,155.6,84c81.5,0,158.1,61.7,222.3,180.3c39.5,71.7,46.9,185.3,56.8,1067.1c14.8,1081.9,14.8,1074.5,175.4,1324c192.7,303.8,583,541,886.8,541c84,0,93.9,7.4,130.9,98.8c27.2,71.6,61.8,111.2,121,135.9C5016.8,2443,5053.9,2440.6,5150.2,2373.9z M5518.2-1768.5c0-74.1-66.7-224.8-130.9-291.5c-148.2-160.6-412.5-200.1-612.6-96.3c-118.6,64.2-232.2,219.9-259.4,358.2l-14.8,79.1h508.8C5503.4-1719.1,5518.2-1721.6,5518.2-1768.5z" />
        </g>
    </g>
</svg>