<svg width="18" height="18" viewBox="0 0 18 18" fill="none" xmlns="http://www.w3.org/2000/svg">
    <circle cx="9" cy="9" r="9" fill="#0F2F97" />
    <path
        d="M13.7709 6.20257C13.7048 6.13838 13.6261 6.08744 13.5394 6.05267C13.4527 6.0179 13.3597 6 13.2657 6C13.1718 6 13.0788 6.0179 12.9921 6.05267C12.9054 6.08744 12.8267 6.13838 12.7605 6.20257L7.45949 11.3114L5.23235 9.16101C5.16367 9.09716 5.08259 9.04695 4.99375 9.01326C4.90491 8.97956 4.81004 8.96304 4.71457 8.96463C4.61909 8.96622 4.52488 8.98589 4.4373 9.02252C4.34972 9.05916 4.2705 9.11203 4.20416 9.17813C4.13782 9.24423 4.08565 9.32226 4.05064 9.40777C4.01563 9.49327 3.99846 9.58457 4.00011 9.67646C4.00176 9.76835 4.0222 9.85903 4.06027 9.94332C4.09833 10.0276 4.15327 10.1039 4.22195 10.1677L6.95429 12.7974C7.02044 12.8616 7.09914 12.9126 7.18585 12.9473C7.27256 12.9821 7.36556 13 7.45949 13C7.55343 13 7.64643 12.9821 7.73314 12.9473C7.81985 12.9126 7.89855 12.8616 7.96469 12.7974L13.7709 7.20926C13.8432 7.14513 13.9008 7.0673 13.9402 6.98067C13.9796 6.89404 14 6.80049 14 6.70592C14 6.61134 13.9796 6.51779 13.9402 6.43116C13.9008 6.34453 13.8432 6.2667 13.7709 6.20257Z"
        fill="white" />
</svg>