<svg width="17" height="17" viewBox="0 0 17 17" fill="none" xmlns="http://www.w3.org/2000/svg">
    <rect x="0.5" y="0.5" width="16" height="16" rx="1.5" fill='#0F2F97' stroke="#0F2F97" />
    <path
        d="M13.7709 5.20257C13.7048 5.13838 13.6261 5.08744 13.5394 5.05267C13.4527 5.0179 13.3597 5 13.2657 5C13.1718 5 13.0788 5.0179 12.9921 5.05267C12.9054 5.08744 12.8267 5.13838 12.7605 5.20257L7.45949 10.3114L5.23235 8.16101C5.16367 8.09716 5.08259 8.04695 4.99375 8.01326C4.90491 7.97956 4.81004 7.96304 4.71457 7.96463C4.61909 7.96622 4.52488 7.98589 4.4373 8.02252C4.34972 8.05916 4.2705 8.11203 4.20416 8.17813C4.13782 8.24423 4.08565 8.32226 4.05064 8.40777C4.01563 8.49327 3.99846 8.58457 4.00011 8.67646C4.00176 8.76835 4.0222 8.85903 4.06027 8.94332C4.09833 9.02761 4.15327 9.10385 4.22195 9.1677L6.95429 11.7974C7.02044 11.8616 7.09914 11.9126 7.18585 11.9473C7.27256 11.9821 7.36556 12 7.45949 12C7.55343 12 7.64643 11.9821 7.73314 11.9473C7.81985 11.9126 7.89855 11.8616 7.96469 11.7974L13.7709 6.20926C13.8432 6.14513 13.9008 6.0673 13.9402 5.98067C13.9796 5.89404 14 5.80049 14 5.70592C14 5.61134 13.9796 5.51779 13.9402 5.43116C13.9008 5.34453 13.8432 5.2667 13.7709 5.20257Z"
        fill="white" />
</svg>
